<svg height="512" viewBox="0 0 60 60" width="512" xmlns="http://www.w3.org/2000/svg"><g id="Page-1" fill="none" fill-rule="evenodd"><g id="045---Romance-Film" fill-rule="nonzero"><rect id="Rectangle-path" fill="#3f51b5" height="14" rx="1" width="58" x="1" y="1"/><path id="Shape" d="m58 1h-3c.5522847 0 1 .44771525 1 1v12c0 .5522847-.4477153 1-1 1h3c.5522847 0 1-.4477153 1-1v-12c0-.55228475-.4477153-1-1-1z" fill="#283593"/><rect id="Rectangle-path" fill="#f5f5f5" height="6" rx="1" width="6" x="5" y="5"/><rect id="Rectangle-path" fill="#f5f5f5" height="6" rx="1" width="6" x="16" y="5"/><rect id="Rectangle-path" fill="#f5f5f5" height="6" rx="1" width="6" x="27" y="5"/><rect id="Rectangle-path" fill="#f5f5f5" height="6" rx="1" width="6" x="38" y="5"/><rect id="Rectangle-path" fill="#f5f5f5" height="6" rx="1" width="6" x="49" y="5"/><rect id="Rectangle-path" fill="#3f51b5" height="14" rx="1" width="58" x="1" y="45"/><path id="Shape" d="m58 45h-3c.5522847 0 1 .4477153 1 1v12c0 .5522847-.4477153 1-1 1h3c.5522847 0 1-.4477153 1-1v-12c0-.5522847-.4477153-1-1-1z" fill="#283593"/><rect id="Rectangle-path" fill="#f5f5f5" height="6" rx="1" width="6" x="5" y="49"/><rect id="Rectangle-path" fill="#f5f5f5" height="6" rx="1" width="6" x="16" y="49"/><rect id="Rectangle-path" fill="#f5f5f5" height="6" rx="1" width="6" x="27" y="49"/><rect id="Rectangle-path" fill="#f5f5f5" height="6" rx="1" width="6" x="38" y="49"/><rect id="Rectangle-path" fill="#f5f5f5" height="6" rx="1" width="6" x="49" y="49"/><path id="Rectangle-path" d="m5 15h50v30h-50z" fill="#02a9f4"/><path id="Rectangle-path" d="m52 15h3v30h-3z" fill="#0377bc"/><path id="Shape" d="m38 26.17c0 3.77-2.59 7.52-8 11.6-1.35 1-2.88 2-4.59 3.12-.2525523.1507336-.5674477.1507336-.82 0-8.54-5.32-12.59-10.01-12.59-14.72 0-3.87 2.65-7.17 6.5-7.17 2.5660415.012561 4.9755376 1.2358437 6.5 3.3 1.5244624-2.0641563 3.9339585-3.287439 6.5-3.3 1.7714565-.0187026 3.4626817.7374175 4.63 2.07 1.2319778 1.4106051 1.8981208 3.2273587 1.87 5.1z" fill="#e91e63"/><path id="Shape" d="m48 26.17c0 4.71-4 9.4-12.59 14.72-.2525523.1507336-.5674477.1507336-.82 0-1.71-1.07-3.24-2.1-4.59-3.12 5.41-4.08 8-7.83 8-11.6.0281208-1.8726413-.6380222-3.6893949-1.87-5.1 1.4712383-1.3322602 3.3851928-2.0700416 5.37-2.07 3.85 0 6.5 3.3 6.5 7.17z" fill="#f44335"/><path id="Shape" d="m16 27c-.5522847 0-1-.4477153-1-1-.0307097-1.0699851.3808482-2.1053413 1.1377534-2.8622466.7569053-.7569052 1.7922615-1.1684631 2.8622466-1.1377534.5522847 0 1 .4477153 1 1s-.4477153 1-1 1c-.5406059-.0357639-1.0703595.1634371-1.4534612.5465388s-.5823027.9128553-.5465388 1.4534612c0 .5522847-.4477153 1-1 1z" fill="#f5f5f5"/><g fill="#000"><path id="Shape" d="m58 0h-56c-1.1045695 0-2 .8954305-2 2v12c0 1.1045695.8954305 2 2 2h2v28h-2c-1.1045695 0-2 .8954305-2 2v12c0 1.1045695.8954305 2 2 2h56c1.1045695 0 2-.8954305 2-2v-12c0-1.1045695-.8954305-2-2-2h-2v-28h2c1.1045695 0 2-.8954305 2-2v-12c0-1.1045695-.8954305-2-2-2zm0 58h-56v-12h56zm-4-14h-48v-28h48zm1-30h-53v-12h56v12z"/><path id="Shape" d="m10 4h-4c-1.1045695 0-2 .8954305-2 2v4c0 1.1045695.8954305 2 2 2h4c1.1045695 0 2-.8954305 2-2v-4c0-1.1045695-.8954305-2-2-2zm-4 6v-4h4v4z"/><path id="Shape" d="m21 4h-4c-1.1045695 0-2 .8954305-2 2v4c0 1.1045695.8954305 2 2 2h4c1.1045695 0 2-.8954305 2-2v-4c0-1.1045695-.8954305-2-2-2zm-4 6v-4h4v4z"/><path id="Shape" d="m32 4h-4c-1.1045695 0-2 .8954305-2 2v4c0 1.1045695.8954305 2 2 2h4c1.1045695 0 2-.8954305 2-2v-4c0-1.1045695-.8954305-2-2-2zm-4 6v-4h4v4z"/><path id="Shape" d="m43 4h-4c-1.1045695 0-2 .8954305-2 2v4c0 1.1045695.8954305 2 2 2h4c1.1045695 0 2-.8954305 2-2v-4c0-1.1045695-.8954305-2-2-2zm-4 6v-4h4v4z"/><path id="Shape" d="m54 4h-4c-1.1045695 0-2 .8954305-2 2v4c0 1.1045695.8954305 2 2 2h4c1.1045695 0 2-.8954305 2-2v-4c0-1.1045695-.8954305-2-2-2zm-4 6v-4h4v4z"/><path id="Shape" d="m10 48h-4c-1.1045695 0-2 .8954305-2 2v4c0 1.1045695.8954305 2 2 2h4c1.1045695 0 2-.8954305 2-2v-4c0-1.1045695-.8954305-2-2-2zm-4 6v-4h4v4z"/><path id="Shape" d="m21 48h-4c-1.1045695 0-2 .8954305-2 2v4c0 1.1045695.8954305 2 2 2h4c1.1045695 0 2-.8954305 2-2v-4c0-1.1045695-.8954305-2-2-2zm-4 6v-4h4v4z"/><path id="Shape" d="m32 48h-4c-1.1045695 0-2 .8954305-2 2v4c0 1.1045695.8954305 2 2 2h4c1.1045695 0 2-.8954305 2-2v-4c0-1.1045695-.8954305-2-2-2zm-4 6v-4h4v4z"/><path id="Shape" d="m43 48h-4c-1.1045695 0-2 .8954305-2 2v4c0 1.1045695.8954305 2 2 2h4c1.1045695 0 2-.8954305 2-2v-4c0-1.1045695-.8954305-2-2-2zm-4 6v-4h4v4z"/><path id="Shape" d="m50 48c-1.1045695 0-2 .8954305-2 2v4c0 1.1045695.8954305 2 2 2h4c1.1045695 0 2-.8954305 2-2v-4c0-1.1045695-.8954305-2-2-2zm0 6v-4h4v4z"/><path id="Shape" d="m24.06 41.73c.2817566.1764975.6075272.2700699.94.27.3295404.001493.6524928-.0922674.93-.27 1.4933333-.92 2.85-1.83 4.07-2.73 1.18.86 2.51 1.76 4.08 2.75.2791924.1631537.5966315.2494143.92.25.3314288.0025382.6569836-.0875089.94-.26 8.91-5.55 13.06-10.5 13.06-15.57 0-4.58-3.29-8.17-7.5-8.17-1.915674-.0057793-3.7818535.6080955-5.32 1.75-1.2959624-1.1319028-2.9593294-1.7538883-4.68-1.75-2.4495484-.0007808-4.7947896.9914366-6.5 2.75-1.7052104-1.7585634-4.0504516-2.7507808-6.5-2.75-4.21 0-7.5 3.59-7.5 8.17 0 5.07 4.15 10.02 13.06 15.56zm22.94-15.56c0 4.29-3.82 8.68-12 13.8-1.26-.79-2.36-1.53-3.35-2.23 5-4 7.35-7.75 7.35-11.57.0150843-1.7518632-.5009105-3.4671972-1.48-4.92 1.1711998-.821888 2.5692198-1.2587692 4-1.25 3.12 0 5.48 2.65 5.48 6.17zm-28.5-6.17c2.2333912.0039317 4.3343768 1.0599826 5.67 2.85.1857617.2764295.4969525.4422366.83.4422366s.6442383-.1658071.83-.4422366c1.3387276-1.786311 3.4377312-2.8413658 5.67-2.85 1.472514-.006845 2.87889.610943 3.87 1.7 1.083571 1.2335179 1.665194 2.8285208 1.63 4.47 0 4.29-3.81 8.68-12 13.79-8.19-5.11-12-9.5-12-13.79 0-3.52 2.36-6.17 5.5-6.17z"/></g></g></g></svg>