<svg id="Capa_1" enable-background="new 0 0 511.479 511.479" height="512" viewBox="0 0 511.479 511.479" width="512" xmlns="http://www.w3.org/2000/svg"><path d="m154.378 7.651h-31.071c-63.694 0-115.807 52.114-115.807 115.808 0 46.147 27.358 86.21 66.654 104.784 2.392 1.131 4.572 2.664 6.423 4.555l40.823 41.687c1.67 1.705 4.567.523 4.567-1.864v-26.251c0-3.923 3.18-7.104 7.104-7.104h21.307c63.694 0 115.808-52.113 115.808-115.808-.001-63.693-52.114-115.807-115.808-115.807z" fill="#9ae7fd"/><path d="m270.183 123.456c0 49.672-31.7 92.302-75.866 108.658 30.599-22.181 50.791-59.492 50.791-101.563 0-33.795-13.026-64.518-34.017-86.797s-49.947-36.104-81.798-36.104h25.084c31.842 0 60.798 13.026 81.789 34.017 20.991 20.992 34.017 49.948 34.017 81.789z" fill="#64dcfc"/><path d="m314.519 145.88 60.217-89.431c6.761-10.041 20.382-12.7 30.423-5.939l64.271 43.276c35.825 24.122 45.312 72.719 21.19 108.544l-179.746 266.947c-24.165 35.888-72.877 45.335-108.705 21.081l-64.047-43.357c-10.007-6.774-12.643-20.369-5.894-30.393l60.247-89.476c6.761-10.041 20.382-12.7 30.423-5.939l47.779 32.171c10.095 6.798 23.79 4.124 30.587-5.971l72.944-108.332c6.798-10.095 4.124-23.79-5.971-30.587l-47.779-32.171c-10.041-6.761-12.7-20.382-5.939-30.423z" fill="#ff5ca8"/><path d="m490.623 202.33-179.75 266.95c-24.16 35.88-72.88 45.33-108.7 21.08l-64.05-43.36c-1.41-.95-2.67-2.04-3.78-3.24l40.68 27.53c35.83 24.26 84.54 14.81 108.7-21.08l179.75-266.94c22.2-32.97 15.93-76.76-13.13-102.33l19.09 12.85c35.82 24.12 45.31 72.711 21.19 108.54z" fill="#ff3d98"/><path d="m320.458 176.303 18.817 12.67 84.7-125.793-18.817-12.67c-10.041-6.761-23.662-4.102-30.423 5.939l-60.217 89.431c-6.76 10.041-4.101 23.662 5.94 30.423z" fill="#fff5f5"/><path d="m138.197 446.986 18.817 12.67 84.701-125.793-18.817-12.67c-10.041-6.761-23.662-4.102-30.423 5.939l-60.217 89.431c-6.761 10.042-4.102 23.662 5.939 30.423z" fill="#fff5f5"/><g fill="#ffc143"><circle cx="191.887" cy="158.534" r="14.637"/><circle cx="138.843" cy="158.534" r="14.637"/><circle cx="85.798" cy="158.534" r="14.637"/></g><path d="m509.865 142.232c-4.387-22.467-17.259-41.882-36.248-54.667l-45.452-30.605s0 0-.001-.001l-18.817-12.67c-13.456-9.06-31.773-5.483-40.832 7.972l-60.218 89.431c-1.698 2.523-2.953 5.217-3.781 7.988-3.589 12.01.821 25.483 11.753 32.845l17.536 11.807 30.244 20.365c3.221 2.169 5.404 5.462 6.148 9.273s-.041 7.683-2.21 10.904l-72.944 108.333c-2.168 3.22-5.461 5.404-9.271 6.148-3.814.744-7.686-.041-10.904-2.209l-47.779-32.171c-1.682-1.132-3.44-2.067-5.246-2.81-3.613-1.486-7.419-2.203-11.198-2.196-5.669.011-11.276 1.654-16.079 4.782-3.202 2.086-6.046 4.832-8.312 8.195l-44.491 66.078-15.755 23.399c-1.093 1.623-1.998 3.319-2.728 5.06-.001.003-.003.006-.004.009-.168.402-.325.807-.474 1.214-.018.049-.038.096-.055.145-.134.37-.256.743-.374 1.116-.028.088-.059.175-.086.264-.106.346-.201.695-.293 1.044-.031.117-.066.233-.095.35-.085.336-.158.673-.231 1.01-.028.13-.06.26-.086.39-.07.349-.129.699-.186 1.05-.019.116-.042.232-.059.349-.06.402-.109.804-.153 1.207-.007.062-.016.124-.022.186-1.062 10.436 3.49 21.124 12.758 27.397l64.047 43.357c14.352 9.715 30.909 14.758 47.86 14.758 5.479 0 11-.527 16.499-1.594 22.512-4.366 41.964-17.246 54.771-36.268l161.061-239.192c2.313-3.436 1.404-8.097-2.031-10.41s-8.096-1.405-10.41 2.032l-161.065 239.191c-10.565 15.692-26.612 26.318-45.185 29.92-18.567 3.601-37.428-.254-53.095-10.861l-39.021-26.416 76.395-113.458 22.742 15.313c6.544 4.406 14.41 6.003 22.156 4.489 7.743-1.511 14.435-5.948 18.84-12.492l72.944-108.333c4.407-6.544 6.001-14.413 4.489-22.156s-5.948-14.435-12.493-18.841l-22.741-15.313 76.324-113.35 39.233 26.417c15.664 10.547 26.284 26.564 29.903 45.1 3.618 18.535-.198 37.37-10.745 53.034-2.313 3.436-1.404 8.097 2.032 10.41 3.435 2.314 8.098 1.404 10.409-2.032 12.787-18.988 17.412-41.819 13.026-64.287zm-354.883 307.014-12.597-8.481h.001c-3.195-2.151-5.36-5.417-6.099-9.197-.738-3.78.04-7.621 2.192-10.816l60.215-89.43c2.776-4.122 7.324-6.353 11.955-6.362 1.76-.003 3.529.325 5.219.982.979.38 1.933.862 2.839 1.473l12.596 8.481zm182.26-270.683-12.595-8.481c-6.595-4.44-8.348-13.418-3.908-20.013l60.218-89.431c2.15-3.195 5.417-5.36 9.196-6.098.473-.092.947-.161 1.42-.206s.946-.067 1.417-.066c2.825.008 5.583.849 7.979 2.463l12.596 8.481z"/><path d="m214.024 158.535c0-12.207-9.931-22.137-22.138-22.137-12.206 0-22.137 9.931-22.137 22.137s9.931 22.137 22.137 22.137c12.208 0 22.138-9.931 22.138-22.137zm-29.274 0c0-3.936 3.201-7.137 7.137-7.137s7.138 3.202 7.138 7.137-3.202 7.137-7.138 7.137-7.137-3.202-7.137-7.137z"/><path d="m138.843 180.672c12.206 0 22.137-9.931 22.137-22.137s-9.931-22.137-22.137-22.137c-12.207 0-22.138 9.931-22.138 22.137s9.931 22.137 22.138 22.137zm0-29.275c3.936 0 7.137 3.202 7.137 7.137s-3.201 7.137-7.137 7.137-7.138-3.202-7.138-7.137 3.202-7.137 7.138-7.137z"/><path d="m107.936 158.535c0-12.207-9.931-22.137-22.138-22.137-12.206 0-22.137 9.931-22.137 22.137s9.931 22.137 22.137 22.137c12.207 0 22.138-9.931 22.138-22.137zm-29.275 0c0-3.936 3.201-7.137 7.137-7.137s7.138 3.202 7.138 7.137-3.202 7.137-7.138 7.137-7.137-3.202-7.137-7.137z"/><path d="m127.145 282.031c3.841-1.568 6.323-5.261 6.323-9.41v-25.855h20.91c67.992 0 123.308-55.315 123.308-123.308s-55.316-123.307-123.308-123.307h-31.07c-67.993 0-123.308 55.316-123.308 123.308 0 12.374 1.852 24.605 5.502 36.355 1.229 3.956 5.427 6.168 9.388 4.937 3.955-1.229 6.166-5.432 4.937-9.387-3.203-10.308-4.827-21.042-4.827-31.905 0-59.721 48.587-108.308 108.308-108.308h31.07c59.721 0 108.308 48.586 108.308 108.308s-48.587 108.308-108.308 108.308h-21.307c-8.053 0-14.604 6.551-14.604 14.604v14.4l-32.531-33.22c-2.46-2.512-5.345-4.56-8.577-6.088-15.159-7.165-28.688-17.949-39.125-31.186-.338-.444-3.154-4.154-4.886-6.705-2.326-3.428-6.991-4.319-10.418-1.993s-4.318 6.991-1.992 10.417c2.065 3.042 5.269 7.245 5.403 7.422.023.03.047.061.07.091 11.871 15.074 27.271 27.354 44.536 35.514 1.621.766 3.058 1.783 4.271 3.022l40.823 41.687c1.956 1.998 4.573 3.059 7.247 3.059 1.296 0 2.604-.249 3.857-.76z"/></svg>